# xmcd
#
# Track frame offsets: 
#        150
#        14175
#        26791
#        38556
#        52756
#        67822
#        85382
#        98606
#        113120
#        126448
#        138260
#        149799
#        164236
#        176735
#        189197
#        201672
#
# Disc length: 2867 seconds
#
# Revision: 0
# Processed by: cddbd v1.5.2PL0 Copyright (c) Steve Scherf et al.
# Submitted via: ExactAudioCopy v1.0b1
#
DISCID=ed0b3110
DTITLE=Various Artist - The Birth of Rhythm and Blues [CD1)
DYEAR=1900
DGENRE=R&B
TTITLE0=Joe Liggins and His Honeydrippers - The Honeydripper
TTITLE1=Sister Rosetta Thorpe - Strange Things Happening Every Day
TTITLE2=Louis Jordan - Caldonia
TTITLE3=Buddy Johnson with Ella Johnson - That's the Stuff You Gotta W
TTITLE3=atch
TTITLE4=Lionel Hampton and His Orchestra - Hey! Ba-Ba-Re-Bap
TTITLE5=Johnny Otis Band - Harlem Nocturne
TTITLE6=Dinah Washington - Postman Blues
TTITLE7=Johnny Moore's Three Blazers - Drifting Blues
TTITLE8=Roy Milton - R.M. Blues
TTITLE9=Bull Moose Jackson - I Know Who Threw the Whisky in the Well
TTITLE10=Ella Fitzgerald and Louis Jordan - Stone Cold Dead in the Marke
TTITLE10=t (He Had It Coming)
TTITLE11=Joe Turner - My Gal's a Jockey
TTITLE12=Helen Humes with the Bill Doggett Octet - Be-Baba-Leba
TTITLE13=Arthur Crudup - So Glad You're Mine
TTITLE14=Eddie Vinson - Old Maid Boogie
TTITLE15=Nellie Lutcher - He's a Real Gone Guy
EXTD=
EXTT0=
EXTT1=
EXTT2=
EXTT3=
EXTT4=
EXTT5=
EXTT6=
EXTT7=
EXTT8=
EXTT9=
EXTT10=
EXTT11=
EXTT12=
EXTT13=
EXTT14=
EXTT15=
PLAYORDER=
